<?xml version="1.0" encoding="utf-8"?>
<!-- Svg Vector Icons : http://www.sfont.cn -->
<!DOCTYPE svg PUBLIC "-//W3C//DTD SVG 1.1//EN" "http://www.w3.org/Graphics/SVG/1.1/DTD/svg11.dtd">
<svg version="1.1" xmlns="http://www.w3.org/2000/svg" xmlns:xlink="http://www.w3.org/1999/xlink" x="0px" y="0px" viewBox="0 0 1000 1000" enable-background="new 0 0 1000 1000" xml:space="preserve">
<metadata> Svg Vector Icons : http://www.sfont.cn </metadata>
<g><g transform="translate(0.000000,511.000000) scale(0.100000,-0.100000)"><path d="M3989.9,5000.1C2156.8,4891.8,813.9,4370,532.3,3651.3c-39.4-102.4-47.3-155.6-47.3-332.8v-210.7l114.2-90.6c250.1-200.8,773.8-415.5,1370.4-563.1c2268.3-557.2,5668.8-279.6,6771.5,553.3l131.9,100.4v208.7c0,309.1-70.9,470.6-305.2,704.9c-519.8,521.8-1644.1,870.3-3130.8,972.7C5185.1,5011.9,4251.8,5015.9,3989.9,5000.1z" fill="#5c58e8"/><path d="M485.1,1721.7V928.2l78.8-65C991.1,508.8,1944.1,209.5,3084.2,71.7C3665,2.7,3988-15,4679.1-15c842.7,0,1368.5,39.4,2077.3,157.5c899.9,149.6,1693.4,429.2,2014.3,708.9l102.4,90.6v787.6v787.6l-63-41.4c-472.6-311.1-1384.2-576.9-2427.8-710.8c-742.3-94.5-1846.9-128-2601.1-76.8c-947.1,61-1961.2,246.1-2538.1,460.7c-210.7,76.8-588.7,256-693.1,324.9l-65,43.3V1721.7z" fill="#5c58e8"/><path d="M485.1-477.7v-785.6l102.4-90.6c271.7-236.3,955-498.2,1699.3-649.8c653.7-131.9,1640.2-226.4,2384.5-228.4H4811l13.8,161.5c43.3,529.7,238.3,980.6,602.5,1392.1l131.9,149.7l-681.3-7.9c-953-9.8-1693.4,41.3-2404.2,165.4C1684.2-233.5,1004.9-9.1,569.7,258.7l-84.7,51.2V-477.7z" fill="#5c58e8"/><path d="M6876.5-442.3c-74.8-9.8-216.6-45.3-315.1-78.8c-634-212.7-1086.9-736.4-1214.9-1411.8c-33.5-181.2-11.8-606.5,39.4-787.6c161.4-555.3,567.1-1002.3,1094.8-1207c246.1-96.5,413.5-122.1,716.7-110.3c364.3,11.8,639.9,96.5,913.6,277.7c63,41.3,116.2,72.8,120.1,68.9c112.2-128,1014.1-1059.4,1043.6-1075.1c61-35.4,118.1-31.5,175.2,13.8c59.1,47.3,78.8,118.2,55.1,183.1c-11.8,27.6-220.5,261.9-468.6,519.8c-246.1,259.9-474.5,498.2-506.1,531.7l-55.1,63l88.6,114.2c248.1,319,370.2,683.2,370.2,1100.7c0,342.6-57.1,569.1-222.5,874.3C8499-970,8136.7-666.7,7701.6-521C7427.9-430.4,7169.9-404.9,6876.5-442.3z M7329.4-777c496.2-68.9,907.7-370.2,1132.2-832.9c110.3-224.5,141.8-397.8,131.9-687.2c-17.7-413.5-135.9-685.2-429.3-978.6c-189-189-350.5-291.4-580.9-368.2c-143.7-49.2-185.1-53.2-452.9-53.2c-267.8,0-309.1,3.9-452.9,53.2c-230.4,76.8-391.8,179.2-580.9,368.2c-193,193-275.7,322.9-360.3,565.1c-82.7,240.2-98.4,569-35.4,813.2c74.8,295.4,194.9,510,399.7,710.8c257.9,254,637.9,417.4,1004.2,429.2C7144.3-757.3,7244.7-765.2,7329.4-777z"/><path d="M485.1-2570.8c0-598.6,3.9-712.8,33.5-795.5c220.5-655.7,1335-1148,3038.2-1340.9c387.9-43.3,1783.9-49.2,2156.1-9.8c448.9,49.2,1106.6,155.6,1084.9,175.3c-3.9,5.9-82.7,25.6-173.3,45.3c-450.9,98.4-828.9,317-1171.6,677.3c-259.9,273.7-472.6,651.7-557.2,988.4L4876-2750l-545.4,11.8c-1689.4,39.4-3036.2,332.8-3790.4,828.9l-55.1,35.5V-2570.8z" fill="#5c58e8"/></g></g>
</svg>