<?xml version="1.0" encoding="utf-8"?>
<!-- Svg Vector Icons : http://www.sfont.cn -->
<!DOCTYPE svg PUBLIC "-//W3C//DTD SVG 1.1//EN" "http://www.w3.org/Graphics/SVG/1.1/DTD/svg11.dtd">
<svg version="1.1" xmlns="http://www.w3.org/2000/svg" xmlns:xlink="http://www.w3.org/1999/xlink" x="0px" y="0px" viewBox="0 0 1000 1000" enable-background="new 0 0 1000 1000" xml:space="preserve">
<metadata> Svg Vector Icons : http://www.sfont.cn </metadata>
<g><path d="M855.3,244.9c0-4.5-1.5-8.9-4.6-12.4L661.8,16.6c-0.1-0.1-0.1-0.1-0.2-0.1c-1.1-1.3-2.4-2.3-3.8-3.2c-0.4-0.3-0.8-0.5-1.3-0.7c-1.2-0.7-2.5-1.2-3.8-1.6c-0.4-0.1-0.7-0.2-1-0.3c-1.4-0.3-2.9-0.5-4.4-0.5H182.9c-21.2,0-38.4,17.2-38.4,38.4v903.1c0,21.2,17.2,38.4,38.4,38.4h634.1c21.2,0,38.4-17.2,38.4-38.4V247C855.5,246.3,855.4,245.6,855.3,244.9z M373.1,937.2c-12.3,0-28.6-2.1-39.1-5.6l6-43.4c7.4,2.5,16.9,4.2,27.5,4.2c22.6,0,36.6-10.2,36.6-47.3V695.8h53.6v150.2h0C457.6,913.6,425.2,937.2,373.1,937.2z M560.6,936.9c-27.1,0-53.9-7.1-67.3-14.4l10.9-44.4c14.5,7.4,36.7,14.8,59.6,14.8c24.7,0,37.7-10.2,37.7-25.7c0-14.8-11.3-23.3-39.8-33.5c-39.5-13.8-65.2-35.6-65.2-70.1c0-40.5,33.8-71.5,89.9-71.5c26.8,0,46.5,5.6,60.6,12l-12,43.4c-9.5-4.6-26.4-11.3-49.7-11.3c-23.3,0-34.6,10.6-34.6,22.9c0,15.1,13.4,21.9,44.1,33.5c41.9,15.5,61.7,37.4,61.7,70.8C656.5,903,625.8,936.9,560.6,936.9z M817.1,662.5H182.9V48.4h445.2v196.6c0,10.6,8.6,19.2,19.2,19.2h169.8V662.5z M646.2,420.6c4.4,9.2,6.4,18.5,6.4,30.4c0,18.6-5.9,33.5-17.8,44.9c-11.2,10.8-25.6,17.2-44.8,19.9c-7.7,1-22.6,1.1-30.6,0c-30.6-4.1-53.2-18.4-67.6-42.7c-1.9-3-2.2-4-1.8-4.5c0.8-0.7,37-21.6,37.4-21.6c0.2,0,1.6,1.8,3.1,4c11.1,16.5,25,24.1,43.5,24.1c11,0,19.8-3,25.5-8.7c1.7-1.7,3.5-4.1,4.2-5.6c3.7-7.6,2-17.6-3.8-23.8c-4.7-5-12.1-9.1-31.9-17.6c-14.6-6.3-23-10.3-29.2-14c-24.3-14.7-35.2-33.3-35.2-59.8c0-17.8,5.5-31.7,17.1-43.2c11.3-11.1,26.3-17.6,44.3-19c6.8-0.5,7.8-0.5,15,0c14.8,1.1,25.9,4.7,36.4,11.6c5.7,3.8,13.9,12.3,18.5,19.2c2.2,3.2,3.9,6,3.9,6.2c0,0.3-34.6,22.7-35.8,23.2c-0.4,0.1-1.5-1.1-3-3.5c-1.3-2-4-5.4-6.2-7.5c-6-6.1-12-8.5-21.2-8.5c-8.1-0.1-13.3,2-17.8,6.9c-3.1,3.4-4.6,6.9-4.9,12c-0.4,6.5,1.4,11.7,5.5,16.1c4.3,4.6,10.9,8.2,30.5,16.7c25.9,11.1,38.9,18.9,49,29C640.2,410.1,643.2,414.3,646.2,420.6z M440.3,285.7h23.3v84.4c0,56-0.2,85.7-0.5,88.4c-3.3,26.3-15.7,44-36.9,52.6c-17.7,7.1-41.7,7.7-60.5,1.4c-17.7-5.9-32.5-18.8-41-35.8l-1.4-2.9l18.8-11.4c10.3-6.2,18.9-11.4,19.1-11.5c0.2-0.1,1.4,1.8,2.8,4.1c8.5,14.6,15.8,19.8,28.1,19.7c8.6,0,13.7-1.7,17.7-5.7c2.9-2.9,4.5-5.9,5.9-11.1l1-3.9l0.1-84.2l0.2-84.1H440.3z" fill="#f99700"/></g>
</svg>